HIERARCHY
ROOT Hips
{
	OFFSET 0.000000 0.000000 0.000000 
	CHANNELS 6 Xposition Yposition Zposition Zrotation Yrotation Xrotation
	JOINT LeftUpLeg
	{
		OFFSET 1.363060 -1.794630 0.839290 
		CHANNELS 3 Zrotation Yrotation Xrotation
		JOINT LeftLeg
		{
			OFFSET 2.448110 -6.726130 0.000000 
			CHANNELS 3 Zrotation Yrotation Xrotation
			JOINT LeftFoot
			{
				OFFSET 2.562200 -7.039590 0.000000 
				CHANNELS 3 Zrotation Yrotation Xrotation
				JOINT LeftToeBase
				{
					OFFSET 0.157640 -0.433110 2.322550 
					CHANNELS 3 Zrotation Yrotation Xrotation
					End Site
					{
						OFFSET 0.000000 0.000000 0.000000 
					}
				}
			}
		}
	}
	JOINT RightUpLeg
	{
		OFFSET -1.305520 -1.794630 0.839290 
		CHANNELS 3 Zrotation Yrotation Xrotation
		JOINT RightLeg
		{
			OFFSET -2.542530 -6.985550 0.000000 
			CHANNELS 3 Zrotation Yrotation Xrotation
			JOINT RightFoot
			{
				OFFSET -2.568260 -7.056230 0.000000 
				CHANNELS 3 Zrotation Yrotation Xrotation
				JOINT RightToeBase
				{
					OFFSET -0.164730 -0.452590 2.363150 
					CHANNELS 3 Zrotation Yrotation Xrotation
					End Site
					{
						OFFSET 0.000000 0.000000 0.000000 
					}
				}
			}
		}
	}
	JOINT Spine
	{
		OFFSET 0.028270 2.035590 -0.193380 
		CHANNELS 3 Zrotation Yrotation Xrotation
		JOINT Spine1
		{
			OFFSET 0.056720 2.048850 -0.042750 
			CHANNELS 3 Zrotation Yrotation Xrotation
			JOINT Neck1
			{
				OFFSET -0.054170 1.746240 0.172020 
				CHANNELS 3 Zrotation Yrotation Xrotation
				JOINT Head
				{
					OFFSET 0.104070 1.761360 -0.123970 
					CHANNELS 3 Zrotation Yrotation Xrotation
					End Site
					{
						OFFSET 0.000000 0.000000 0.000000 
					}
				}
			}
			JOINT LeftArm
			{
				OFFSET 3.362410 1.200890 -0.311210 
				CHANNELS 3 Zrotation Yrotation Xrotation
				JOINT LeftForeArm
				{
					OFFSET 4.983000 -0.000000 -0.000000 
					CHANNELS 3 Zrotation Yrotation Xrotation
					JOINT LeftHand
					{
						OFFSET 3.483560 -0.000000 -0.000000 
						CHANNELS 3 Zrotation Yrotation Xrotation
						JOINT LeftHandIndex1
						{
							OFFSET 0.715260 -0.000000 -0.000000 
							CHANNELS 3 Zrotation Yrotation Xrotation
							End Site
							{
								OFFSET 0.000000 0.000000 0.000000 
							}
						}
					}
				}
			}
			JOINT RightArm
			{
				OFFSET -3.136600 1.374050 -0.404650 
				CHANNELS 3 Zrotation Yrotation Xrotation
				JOINT RightForeArm
				{
					OFFSET -5.241900 -0.000000 -0.000000 
					CHANNELS 3 Zrotation Yrotation Xrotation
					JOINT RightHand
					{
						OFFSET -3.444170 -0.000000 -0.000000 
						CHANNELS 3 Zrotation Yrotation Xrotation
						JOINT RightHandIndex1
						{
							OFFSET -0.622530 -0.000000 -0.000000 
							CHANNELS 3 Zrotation Yrotation Xrotation
							End Site
							{
								OFFSET 0.000000 0.000000 0.000000 
							}
						}
					}
				}
			}
		}
	}
}
MOTION
Frames: 18
Frame Time: 0.041667
-1.759057 16.830155 44.866434 -177.580790 11.382513 -155.731720 -6.146213 5.552951 -64.345993 6.351647 18.837359 48.685337 4.031350 -5.534800 27.729680 1.063500 -6.556600 -18.408200 -0.427514 10.680554 1.405791 2.554951 -4.727802 8.228786 -8.258432 -27.470376 63.036493 -1.688300 8.184300 -23.275200 -0.214358 5.299960 -5.061466 -3.164434 3.581993 -8.726561 3.672786 -2.611070 -0.717759 0.324100 -1.571200 4.032700 -47.641548 52.903586 61.729716 116.337105 -61.958423 -87.403313 0.548711 -0.860038 -8.934230 -7.125000 0.000000 0.000000 70.770844 -5.188637 43.074523 -128.627518 50.777202 -98.253151 1.195835 0.102675 -5.304465 7.125000 0.000000 0.000000 
-1.742104 16.847107 44.271196 -178.041029 9.265066 -156.761167 -6.638155 5.013830 -62.320737 6.719520 19.088651 49.710646 3.782828 -4.881061 28.167649 1.234400 -7.045600 -19.850500 1.009311 7.035940 0.275860 1.276722 -6.658161 13.332512 -6.869889 -26.983391 60.796233 -2.342600 9.546000 -27.518700 -0.166631 4.454484 -4.988636 -3.306596 3.075853 -8.661162 3.816227 -2.797166 -0.660622 0.370000 -1.646200 4.162100 -50.474065 52.015935 59.196450 114.199975 -62.356491 -85.923876 0.377934 -0.809302 -9.065857 -7.125000 0.000000 0.000000 71.909622 -6.533157 42.687955 -125.712696 52.327342 -96.110159 1.147937 0.166756 -4.609728 7.125000 0.000000 0.000000 
-1.713441 16.883243 43.719010 -177.543439 9.404431 -156.180341 -7.383488 6.332415 -61.804427 7.003675 18.962708 50.192748 3.603457 -4.354609 28.369397 0.098100 -2.020200 -5.561500 1.911133 5.834073 -1.879141 0.341069 -7.975461 18.200069 -6.023337 -22.070053 58.816392 -2.366500 9.591000 -27.662200 -0.153247 4.644061 -5.075904 -3.095829 3.071021 -8.926200 4.020763 -2.819214 -0.687789 0.491600 -1.632900 4.052600 -53.507864 51.245940 56.872256 112.166544 -62.604625 -84.456182 0.190557 -0.766990 -9.830861 -7.125000 0.000000 0.000000 73.207697 -8.358485 42.468110 -121.861619 54.084161 -93.257220 1.127376 0.226612 -3.346536 7.125000 0.000000 0.000000 
-1.691581 16.936443 43.126783 -177.576545 7.851114 -156.713201 -7.660305 6.253687 -59.855140 7.183570 18.934929 50.876508 3.925098 -5.244113 24.022584 0.295500 -3.495200 -9.660600 3.535321 3.436673 -3.213947 -0.711995 -9.224314 22.869884 -5.092322 -19.083984 56.394779 -3.707600 11.760800 -34.890800 -0.123170 4.117240 -5.040646 -3.199994 2.703120 -8.931854 4.210756 -2.958965 -0.729057 0.585500 -1.682300 4.063800 -56.455973 49.571925 54.607324 109.388010 -62.794242 -82.571168 -0.022981 -0.764875 -10.750784 -7.125000 0.000000 0.000000 74.952786 -9.948711 41.533050 -117.014248 55.863804 -89.718738 1.118305 0.306890 -2.409719 7.125000 0.000000 0.000000 
-1.662249 17.029013 42.539018 -177.882790 6.550529 -157.238309 -7.908358 6.120127 -57.589098 6.975819 18.719912 50.796674 4.881868 -7.543747 21.782082 0.008600 -0.599300 -1.646900 4.880924 1.127566 -5.190783 -2.523837 -10.868707 27.796097 -3.763750 -20.636734 53.997062 -2.978800 10.660600 -31.143500 -0.089074 3.498320 -5.019292 -3.069327 2.313867 -9.074178 4.372642 -2.956437 -0.850011 0.671500 -1.674200 3.984900 -59.830639 47.051802 52.135100 104.865407 -62.940801 -79.558686 -0.203883 -0.842323 -11.404940 -7.125000 0.000000 0.000000 76.896394 -11.464814 40.530012 -109.515507 57.776837 -84.282906 1.220421 0.484294 -2.742034 7.125000 0.000000 0.000000 
-1.634254 17.068941 41.969544 -178.070566 5.371040 -157.602950 -8.266234 6.204190 -55.721403 6.972633 18.517996 50.781857 5.225194 -8.042167 19.969923 0.013000 0.737100 2.025600 6.200763 -0.482112 -7.043778 -4.078529 -12.212451 32.842904 -2.646903 -19.873999 51.170374 -3.072200 10.811000 -31.645000 -0.062562 2.972863 -5.013952 -2.912928 1.919433 -9.188906 4.527982 -2.984483 -0.933205 0.745700 -1.679500 3.942700 -62.587567 44.677372 50.275151 100.845141 -62.820316 -76.821520 -0.379646 -0.900231 -11.970949 -7.125000 0.000000 0.000000 78.597924 -12.929042 39.613121 -102.385757 58.805511 -79.110532 1.278707 0.643700 -2.696098 7.125000 0.000000 0.000000 
-1.604030 17.104742 41.407097 -178.423139 4.205131 -157.973149 -8.627735 6.158212 -53.859451 6.953104 18.292770 50.698394 5.597011 -8.533056 18.134111 0.078400 1.806800 4.972000 7.360336 -1.836346 -9.205388 -5.784703 -13.533829 38.266248 -1.536469 -19.171206 48.035299 -3.082200 10.826900 -31.698300 -0.038704 2.416089 -5.009681 -2.658834 1.594486 -9.338351 4.665628 -2.977473 -1.042849 0.805200 -1.673400 3.882700 -65.154586 41.949788 48.752025 96.353450 -62.448151 -73.673536 -0.543401 -0.967475 -12.442427 -7.125000 0.000000 0.000000 80.320029 -14.325202 38.787043 -94.248016 59.073829 -73.074064 1.357939 0.826172 -2.886391 7.125000 0.000000 0.000000 
-1.572020 17.134186 40.850783 -179.034609 2.985818 -158.396318 -9.008804 5.852129 -51.982626 6.980450 18.105041 50.756652 5.990208 -9.072327 16.246508 0.133900 2.358500 6.497500 8.217132 -3.041121 -11.611314 -7.559631 -14.748334 43.775455 -0.470277 -18.641991 44.709239 -3.050400 10.776200 -31.528900 -0.016282 1.756489 -5.000688 -2.292480 1.239682 -9.527785 4.783968 -2.940743 -1.178529 0.846100 -1.659500 3.807200 -67.498436 38.933633 47.603434 91.532965 -61.781710 -70.127859 -0.689556 -1.025509 -12.757305 -7.125000 0.000000 0.000000 82.009647 -15.632971 38.094931 -85.589426 58.401972 -66.254800 1.442176 1.009085 -3.326023 7.125000 0.000000 0.000000 
-1.538896 17.150358 40.303615 -179.894660 1.799837 -158.828273 -9.445066 5.338184 -50.136315 7.013691 17.932825 50.885672 6.395068 -9.696491 14.609667 0.182800 2.754100 7.594900 8.690154 -4.040031 -14.281864 -9.367085 -15.841674 49.394350 0.512852 -18.048985 41.174480 -2.951600 10.616200 -30.996200 0.002110 1.027602 -4.989561 -1.796896 0.872739 -9.749645 4.893958 -2.876677 -1.338501 0.877100 -1.637600 3.712100 -69.627877 35.710714 46.788256 86.598073 -60.838703 -66.252117 -0.812424 -1.054027 -12.887718 -7.125000 0.000000 0.000000 83.599183 -16.819035 37.369445 -76.933454 56.941427 -58.828913 1.519143 1.157006 -3.965025 7.125000 0.000000 0.000000 
-1.505660 17.159281 39.762358 179.033973 0.637990 -159.263462 -9.931555 4.630631 -48.275162 7.063869 17.776066 51.079903 6.744599 -10.229801 13.101015 0.183800 2.761700 7.615900 8.759033 -4.881616 -17.163114 -11.132475 -16.786430 54.961337 1.350446 -17.299060 37.518002 -2.871800 10.484600 -30.560800 0.016598 0.236352 -4.975249 -1.189925 0.491945 -9.980592 5.007113 -2.798044 -1.515537 0.906000 -1.612100 3.602100 -71.553625 32.332666 46.214476 81.752693 -59.695957 -62.161818 -0.910796 -1.039137 -12.813587 -7.125000 0.000000 0.000000 85.021991 -17.846615 36.329734 -68.619509 55.022247 -51.172716 1.582092 1.259151 -4.776949 7.125000 0.000000 0.000000 
-1.474320 17.159281 39.226232 177.843969 -0.519110 -159.691474 -10.418827 3.752112 -46.384988 7.125205 17.633997 51.339300 7.171827 -11.012834 11.694756 0.154500 2.532800 6.980700 8.497053 -5.594465 -20.203621 -12.817841 -17.583405 60.349370 2.051707 -16.461503 33.724435 -2.773300 10.318700 -30.015000 0.029669 -0.601513 -4.959781 -0.511536 0.096609 -10.203757 5.133519 -2.711955 -1.696986 0.942300 -1.583400 3.481600 -73.299324 28.872325 45.766132 77.186011 -58.463675 -58.044266 -0.988481 -0.976307 -12.521622 -7.125000 0.000000 0.000000 86.211108 -18.715719 34.892302 -60.700268 52.838356 -43.643768 1.645833 1.332217 -5.682007 7.125000 0.000000 0.000000 
-1.446883 17.148574 38.693898 176.655508 -1.678382 -160.098000 -10.857494 2.774037 -44.462573 7.197221 17.500650 51.626790 7.648036 -11.974864 10.426797 0.123200 2.262900 6.232700 8.015892 -6.191080 -23.353647 -14.394255 -18.242248 65.425757 2.637785 -15.656300 29.825625 -2.675000 10.149300 -29.461700 0.042037 -1.451949 -4.942341 0.172596 -0.307085 -10.382686 5.274793 -2.629727 -1.867024 0.989500 -1.554600 3.363800 -74.881161 25.383591 45.351847 73.097364 -57.252806 -54.166718 -1.051118 -0.875642 -12.016816 -7.125000 0.000000 0.000000 87.129800 -19.458560 33.119634 -53.265382 50.442985 -36.616338 1.716295 1.408005 -6.602402 7.125000 0.000000 0.000000 
-1.424800 17.127048 38.165021 175.589950 -2.790433 -160.461772 -11.217543 1.830988 -42.559381 7.286877 17.372915 51.914010 8.111694 -12.934832 9.253032 0.088900 1.923400 5.294000 7.433380 -6.625479 -26.594217 -15.848150 -18.780072 70.084112 3.143838 -15.035160 25.929164 -2.585500 9.991700 -28.949900 0.052756 -2.259203 -4.924792 0.810214 -0.695874 -10.568576 5.389080 -2.548226 -2.215434 1.145800 -1.535500 3.504500 -76.332820 21.982412 44.929082 69.701471 -56.163898 -50.831209 -1.102204 -0.755851 -11.328052 -7.125000 0.000000 0.000000 87.750663 -20.168891 31.165694 -46.420944 47.837811 -30.334139 1.804382 1.487330 -7.392176 7.125000 0.000000 0.000000 
-1.408182 17.095151 37.636924 174.718183 -3.856283 -160.788733 -11.467843 1.011534 -40.681742 7.386544 17.248327 52.171850 8.599844 -13.968615 8.172055 0.064400 1.637400 4.504500 6.852368 -6.891734 -29.893811 -17.154913 -19.212184 74.230942 3.610760 -14.693281 22.123507 -2.460600 9.765900 -28.222100 0.066459 -3.006905 -4.913561 1.368258 -1.071406 -10.664700 5.539433 -2.479760 -2.314115 1.209700 -1.505800 3.419700 -77.688055 18.739834 44.483295 67.202689 -55.275851 -48.305488 -1.142878 -0.635643 -10.526246 -7.125000 0.000000 0.000000 88.066026 -20.888740 29.191627 -40.266615 45.054759 -24.923309 1.900487 1.571987 -7.934792 7.125000 0.000000 0.000000 
-1.396137 17.055446 37.107044 174.078160 -4.837795 -161.073580 -11.597536 0.406195 -38.855804 7.487151 17.122439 52.360773 9.087215 -14.975162 7.156876 0.044700 1.364500 3.752500 6.327339 -6.949113 -33.244486 -18.281809 -19.556916 77.785109 4.072399 -14.657003 18.446939 -2.357300 9.573800 -27.607300 0.083972 -3.673851 -4.908273 1.818476 -1.423267 -10.712411 5.726134 -2.250263 -2.342918 1.269100 -0.910000 3.382900 -78.977588 15.772083 44.049405 65.787470 -54.665222 -46.801335 -1.171209 -0.533088 -9.734720 -7.125000 0.000000 0.000000 88.081237 -21.707975 27.329654 -34.838825 42.169795 -20.384573 1.998051 1.640802 -8.090900 7.125000 0.000000 0.000000 
-1.387549 17.011391 36.571363 173.656566 -5.756508 -161.334541 -11.585712 0.022026 -37.039686 7.561230 16.984559 52.417938 9.574150 -15.934981 6.245281 0.030800 1.133800 3.116900 5.880711 -6.823002 -36.604520 -19.191547 -19.836765 80.650130 4.506704 -14.854448 15.090776 -2.250700 9.369900 -26.959500 0.106459 -4.268279 -4.907742 2.212452 -1.750480 -10.729361 5.845880 -2.173227 -2.350253 1.314800 -0.864100 3.368100 -80.218822 13.158092 43.685339 65.601664 -54.386690 -46.461993 -1.187070 -0.462328 -9.115988 -7.125000 0.000000 0.000000 87.822032 -22.705019 25.672864 -30.181715 39.325864 -16.700176 2.092819 1.670994 -7.802018 7.125000 0.000000 0.000000 
-1.380300 16.969010 36.025199 173.421520 -6.620890 -161.570880 -11.419455 -0.159425 -35.197247 7.571167 16.819162 52.258285 10.067687 -16.847535 5.486966 0.020400 0.921200 2.531900 5.502529 -6.531147 -39.930639 -19.851939 -20.075756 82.726653 4.892707 -15.194787 12.225203 -2.153100 9.177900 -26.353500 0.137851 -4.804234 -4.910383 2.550784 -2.059681 -10.693090 5.934493 -2.082240 -2.319056 1.338000 -0.816400 3.382100 -81.411911 10.916417 43.446555 66.720059 -54.459769 -47.349382 -1.191723 -0.427635 -8.827718 -7.125000 0.000000 0.000000 87.326087 -23.923247 24.279052 -26.277930 36.668025 -13.792143 2.177245 1.645279 -7.034340 7.125000 0.000000 0.000000 
-1.372827 16.936332 35.464090 173.307302 -7.450031 -161.783978 -11.103090 -0.201149 -33.273598 7.469955 16.606702 51.788867 10.560012 -17.692702 4.971842 0.011500 0.693500 1.905800 5.148135 -6.123518 -43.151674 -20.232590 -20.295531 83.914096 5.208796 -15.559408 9.923160 -2.092500 9.056100 -25.970900 0.181515 -5.306895 -4.915734 2.868886 -2.358605 -10.606195 5.990122 -1.968209 -2.260766 1.337700 -0.763200 3.407500 -82.542918 9.045443 43.374968 69.159721 -54.861475 -49.463398 -1.188410 -0.424892 -8.974987 -7.125000 0.000000 0.000000 86.632061 -25.408806 23.181011 -23.108859 34.349536 -11.582749 2.245090 1.565015 -5.858656 7.125000 0.000000 0.000000 
